<svg width="39" height="38" viewBox="0 0 39 38" fill="none" xmlns="http://www.w3.org/2000/svg">
<path d="M38.4214 37.8754H28.8393C28.7463 37.8754 28.6843 37.8443 28.6223 37.8131C28.5603 37.7508 28.4982 37.6885 28.4672 37.6262L20.7457 19.6229L20.2496 18.5016V18.2213L10.9776 37.2836C10.9465 37.3459 10.8845 37.4082 10.8225 37.4394C10.7605 37.4705 10.6675 37.5016 10.6054 37.5016H0.403132C0.341111 37.5016 0.248079 37.4705 0.217069 37.4394C0.155049 37.4082 0.0930292 37.3459 0.0620192 37.3148C0.0310091 37.2525 0 37.1902 0 37.1279C0 37.0656 -4.73638e-07 36.9721 0.0310096 36.9098L17.5827 0.934426C17.7377 0.654098 17.9238 0.404933 18.2029 0.249196C18.482 0.0934578 18.7921 0 19.1022 0H26.4826C26.7617 0 27.0408 0.0623179 27.2888 0.218056C27.5369 0.342646 27.754 0.560656 27.909 0.778688C28.0641 1.02787 28.1571 1.30819 28.1571 1.58852C28.1571 1.86884 28.1261 2.1492 27.9711 2.42952L24.746 8.53443V8.34756V8.53443L25.3662 9.84262L38.7626 37.1902C38.8556 37.2525 38.9486 37.3459 38.9796 37.4394C39.0106 37.564 39.0106 37.6885 38.9486 37.782C38.8866 37.8754 38.7936 37.9688 38.7005 38C38.6385 37.9377 38.5145 37.9377 38.4214 37.8754Z" fill="white"/>
</svg>
