<svg width="22" height="22" viewBox="0 0 22 22" fill="none" xmlns="http://www.w3.org/2000/svg">
    <path fill-rule="evenodd" clip-rule="evenodd" d="M11.0375 0C4.95563 0 0 4.95563 0 11.0375C0 17.1195 4.95563 22 11.0375 22C17.1195 22 22 17.1195 22 11.0375C22 4.95563 17.1195 0 11.0375 0ZM12.2389 14.1911L12.6143 14.4915C12.6143 14.4915 12.7645 14.7167 13.215 14.5666C13.6655 14.3413 14.7918 13.0648 14.7918 13.0648C14.7918 13.0648 15.3174 12.6143 15.843 13.0648C16.4437 13.5154 18.2457 15.3174 18.2457 15.3174C18.2457 15.3174 18.5461 15.843 18.1706 16.3686C17.7201 16.8191 15.843 18.2457 15.843 18.2457C15.843 18.2457 15.0171 18.6212 14.041 17.8703C12.314 16.4437 5.55631 9.68601 4.12969 7.95904C3.37884 6.98294 3.82935 6.157 3.82935 6.157C3.82935 6.157 5.18089 4.27986 5.70648 3.90444C6.23208 3.45393 6.68259 3.82935 6.68259 3.82935C6.68259 3.82935 8.48464 5.6314 8.93515 6.157C9.38567 6.75768 8.93515 7.20819 8.93515 7.20819C8.93515 7.20819 7.6587 8.33447 7.50853 8.78498C7.28328 9.2355 7.50853 9.46075 7.50853 9.46075L7.88396 9.83618C9.31058 11.2628 10.7372 12.6894 12.2389 14.1911Z" fill="#547966"/>
</svg>